<svg width="57" height="33" viewBox="0 0 57 33" fill="none" xmlns="http://www.w3.org/2000/svg">
<path d="M26.125 6.875V9.625H20.625V6.875H26.125ZM12.375 6.875V15.125H6.875V6.875H12.375ZM26.125 17.875V26.125H20.625V17.875H26.125ZM12.375 23.375V26.125H6.875V23.375H12.375ZM28.875 4.125H17.875V12.375H28.875V4.125ZM15.125 4.125H4.125V17.875H15.125V4.125ZM28.875 15.125H17.875V28.875H28.875V15.125ZM15.125 20.625H4.125V28.875H15.125V20.625Z" fill="#444444"/>
<path d="M44.4998 11.9995L44.9879 11.4301L44.4998 11.0117L44.0117 11.4301L44.4998 11.9995ZM44.4998 20.9995L44.0117 21.569L44.4998 21.9873L44.9879 21.569L44.4998 20.9995ZM41.4879 15.569L44.9879 12.569L44.0117 11.4301L40.5117 14.4301L41.4879 15.569ZM44.0117 12.569L47.5117 15.569L48.4879 14.4301L44.9879 11.4301L44.0117 12.569ZM40.5117 18.569L44.0117 21.569L44.9879 20.4301L41.4879 17.4301L40.5117 18.569ZM44.9879 21.569L48.4879 18.569L47.5117 17.4301L44.0117 20.4301L44.9879 21.569Z" fill="#444444"/>
</svg>
